<svg width="191" height="150" viewBox="0 0 191 150" fill="none" xmlns="http://www.w3.org/2000/svg">
<path fill-rule="evenodd" clip-rule="evenodd" d="M8.26538 6.56929C8.06411 6.19666 7.65323 5.94141 7.17907 5.94141C6.50632 5.94141 5.96094 6.45528 5.96094 7.08918V113.852C5.96094 114.486 6.50632 115 7.17907 115C7.85183 115 8.39721 114.486 8.39721 113.852V92.5563C24.0212 73.8178 41.2164 69.0645 54.5766 69.0132C61.3887 68.987 67.2138 70.1839 71.3351 71.3873C73.3953 71.9888 75.028 72.5915 76.1433 73.0427C76.701 73.2683 77.1292 73.4559 77.4166 73.5865C77.5603 73.6518 77.6688 73.7028 77.7407 73.7372L77.7871 73.7594L77.8034 73.7673L92.6084 87.7171C92.8145 87.9113 93.139 87.9016 93.3332 87.6955C93.5274 87.4894 93.5177 87.1649 93.3116 86.9707L78.4875 73.003L78.4744 72.9785C78.439 72.9123 78.3864 72.8121 78.319 72.6792C78.1843 72.4135 77.9906 72.0174 77.7581 71.5011C77.2929 70.4683 76.6726 68.9556 76.0569 67.0453C74.8254 63.2236 73.6153 57.8184 73.7001 51.4855C73.8688 38.8744 79.1715 22.5085 99.8661 7.59477H123.479C123.762 7.59477 123.991 7.36521 123.991 7.08203C123.991 6.79885 123.762 6.56929 123.479 6.56929H99.7068H99.6942H8.26538ZM75.6671 71.7544L55.2651 52.531C55.2054 52.5203 55.1284 52.5068 55.035 52.4911C54.7799 52.4484 54.402 52.3894 53.915 52.3252C52.9409 52.1966 51.5314 52.0472 49.7973 51.9652C46.3276 51.801 41.5677 51.9072 36.4019 52.9854C26.4816 55.0558 15.0764 60.7035 8.39721 74.9299V90.9681C24.0229 72.7478 41.1637 68.0392 54.5727 67.9877C61.5051 67.9611 67.43 69.1787 71.6226 70.4029C73.2421 70.8758 74.6041 71.35 75.6671 71.7544ZM55.9205 51.7395C55.889 51.6995 55.8516 51.6641 55.8092 51.6347L54.9681 50.8421C54.9417 50.7061 54.9135 50.5556 54.8843 50.3912C54.7282 49.5132 54.5408 48.2405 54.418 46.6712C54.1724 43.531 54.1864 39.2124 55.2215 34.4943C57.2842 25.0922 63.4065 14.0626 79.749 7.59477H98.1299C78.112 22.4748 72.8446 38.7705 72.6747 51.4718C72.5881 57.9412 73.8239 63.4591 75.0809 67.3598C75.5621 68.853 76.0468 70.1104 76.4624 71.0948L55.9205 51.7395ZM38.7532 35.5639L53.7277 49.6735C53.6068 48.8726 53.4846 47.886 53.3956 46.7489C53.1444 43.5368 53.1578 39.1133 54.2198 34.2725C56.2478 25.0285 62.095 14.3002 77.1032 7.59477H55.7712C55.7493 7.60667 55.7263 7.61712 55.7022 7.62595C44.2076 11.839 40.0211 18.8731 38.6672 24.8107C37.9866 27.7954 38.018 30.5226 38.2206 32.5051C38.3218 33.4955 38.4654 34.2975 38.5831 34.8495C38.6419 35.1254 38.6942 35.3386 38.7313 35.4814L38.7428 35.5252L38.7532 35.5639ZM53.9545 51.2961C52.9604 51.1673 51.557 51.0218 49.8458 50.9408C46.3149 50.7738 41.4647 50.8811 36.1924 51.9815C26.4878 54.007 15.3425 59.4036 8.39721 72.6256V50.3045C12.9381 40.8359 20.0778 37.2877 26.2207 36.1221C29.4861 35.5025 32.4765 35.5561 34.6521 35.7655C35.739 35.8702 36.6201 36.0135 37.2273 36.1301C37.5309 36.1884 37.7658 36.24 37.9235 36.2766C37.971 36.2877 38.0115 36.2974 38.0448 36.3055L53.9545 51.2961ZM26.0296 35.1146C20.0223 36.2545 13.1122 39.5949 8.39721 48.0716V8.3705L36.6451 34.9866C36.1134 34.9012 35.4757 34.8146 34.7504 34.7448C32.5064 34.5287 29.4147 34.4723 26.0296 35.1146ZM53.0212 7.59477H9.06929L37.4368 34.3236C37.352 33.8405 37.2673 33.2637 37.2004 32.6093C36.9897 30.5471 36.9558 27.7032 37.6674 24.5827C38.9997 18.7398 42.9324 11.9943 53.0212 7.59477Z" fill="url(#paint0_linear_202_25182)"/>
<path fill-rule="evenodd" clip-rule="evenodd" d="M116 76V7H115V76H116Z" fill="url(#paint1_linear_202_25182)"/>
<path fill-rule="evenodd" clip-rule="evenodd" d="M107.924 52.7077C108.195 52.6025 108.5 52.7369 108.605 53.0079L109.371 54.9819L111.896 55.8635C112.588 54.2615 113.805 53.1985 115.19 53.1985C116.578 53.1985 117.796 54.2642 118.487 55.8695L121.029 54.9819L121.795 53.0079C121.901 52.7369 122.206 52.6025 122.477 52.7077C122.748 52.813 122.882 53.118 122.777 53.389L121.923 55.5894C121.867 55.7331 121.751 55.8451 121.605 55.8959L118.829 56.8655C118.947 57.3155 119.028 57.7929 119.066 58.2894L121.417 57.7476C121.623 57.7002 121.838 57.7669 121.981 57.9222L123.996 60.116C124.215 60.3543 124.199 60.725 123.961 60.944C123.722 61.1629 123.352 61.1472 123.133 60.9088L121.348 58.9662L119.072 59.4906C119.042 59.9525 118.975 60.3984 118.875 60.8217L120.583 60.4282C120.804 60.3772 121.035 60.4589 121.176 60.6377L122.839 62.7591C123.038 63.0138 122.994 63.3821 122.739 63.5818C122.484 63.7814 122.116 63.7368 121.916 63.4822L120.483 61.6539L118.433 62.1263C118.237 62.5573 118.002 62.9469 117.735 63.2846C117.873 63.6254 117.949 63.9997 117.949 64.3924C117.949 65.9751 116.714 67.2582 115.19 67.2582C113.667 67.2582 112.432 65.9751 112.432 64.3924C112.432 63.9998 112.508 63.6256 112.645 63.2848C112.378 62.9458 112.142 62.5543 111.945 62.1212L109.917 61.6539L108.484 63.4822C108.284 63.7368 107.916 63.7814 107.661 63.5818C107.407 63.3821 107.362 63.0138 107.562 62.7591L109.225 60.6377C109.365 60.4589 109.596 60.3772 109.818 60.4282L111.504 60.8169C111.405 60.3936 111.338 59.9478 111.308 59.486L109.052 58.9662L107.268 60.9088C107.049 61.1472 106.678 61.1629 106.44 60.944C106.201 60.725 106.186 60.3543 106.404 60.116L108.42 57.9222C108.562 57.7669 108.777 57.7002 108.983 57.7476L111.315 58.285C111.353 57.7877 111.435 57.3097 111.554 56.8592L108.795 55.8959C108.649 55.8451 108.533 55.7331 108.478 55.5894L107.623 53.389C107.518 53.118 107.652 52.813 107.924 52.7077Z" fill="url(#paint2_linear_202_25182)"/>
<path d="M130.305 21.0199C130.735 19.241 133.265 19.241 133.695 21.0199V21.0199C133.848 21.6556 134.344 22.152 134.98 22.3054V22.3054C136.759 22.7348 136.759 25.2652 134.98 25.6946V25.6946C134.344 25.848 133.848 26.3444 133.695 26.9801V26.9801C133.265 28.759 130.735 28.759 130.305 26.9801V26.9801C130.152 26.3444 129.656 25.848 129.02 25.6946V25.6946C127.241 25.2652 127.241 22.7348 129.02 22.3054V22.3054C129.656 22.152 130.152 21.6556 130.305 21.0199V21.0199Z" fill="#00A879"/>
<path d="M146.216 32.0843C146.702 30.0515 149.594 30.0515 150.08 32.0843L150.617 34.3322C150.79 35.0569 151.355 35.6237 152.079 35.8003L154.383 36.3621C156.404 36.8549 156.404 39.7288 154.383 40.2216L152.079 40.7834C151.355 40.9599 150.79 41.5268 150.617 42.2515L150.08 44.4994C149.594 46.5322 146.702 46.5322 146.216 44.4994L145.679 42.2515C145.506 41.5268 144.942 40.9599 144.218 40.7834L141.914 40.2216C139.893 39.7288 139.893 36.8549 141.914 36.3621L144.218 35.8003C144.942 35.6237 145.506 35.0569 145.679 34.3322L146.216 32.0843Z" fill="#00A879"/>
<path d="M160.216 14.0882C160.702 12.0554 163.594 12.0554 164.08 14.0882L164.617 16.3361C164.79 17.0608 165.355 17.6277 166.079 17.8042L168.383 18.366C170.404 18.8588 170.404 21.7327 168.383 22.2255L166.079 22.7873C165.355 22.9638 164.79 23.5307 164.617 24.2554L164.08 26.5033C163.594 28.5361 160.702 28.5361 160.216 26.5033L159.679 24.2554C159.506 23.5307 158.942 22.9638 158.218 22.7873L155.914 22.2255C153.893 21.7327 153.893 18.8588 155.914 18.366L158.218 17.8042C158.942 17.6277 159.506 17.0608 159.679 16.3361L160.216 14.0882Z" fill="#00A879"/>
<path d="M19.0117 122.168C19.0117 123.797 17.7082 125.095 16.1266 125.095C14.5449 125.095 13.2414 123.797 13.2414 122.168C13.2414 120.54 14.5449 119.241 16.1266 119.241C17.7082 119.241 19.0117 120.54 19.0117 122.168Z" stroke="#00A879" stroke-width="2.48287"/>
<path d="M29.0117 13.1685C29.0117 14.7968 27.7082 16.0955 26.1266 16.0955C24.5449 16.0955 23.2414 14.7968 23.2414 13.1685C23.2414 11.5401 24.5449 10.2414 26.1266 10.2414C27.7082 10.2414 29.0117 11.5401 29.0117 13.1685Z" stroke="#00A879" stroke-width="2.48287"/>
<path d="M164.895 134.84C164.895 136.469 163.591 137.767 162.009 137.767C160.428 137.767 159.124 136.469 159.124 134.84C159.124 133.212 160.428 131.913 162.009 131.913C163.591 131.913 164.895 133.212 164.895 134.84Z" stroke="#00A879" stroke-width="2.48287"/>
<g opacity="0.8">
<path d="M71.7487 137.5H119.249C158.832 137.5 174.665 125 174.665 93.75V56.25C174.665 25 158.832 12.5 119.249 12.5H71.7487C32.1654 12.5 16.332 25 16.332 56.25V93.75C16.332 125 32.1654 137.5 71.7487 137.5Z" fill="url(#paint3_linear_202_25182)" stroke="#00A879" stroke-linecap="round" stroke-linejoin="round"/>
<path d="M21.6367 118.438L60.6659 97.75C66.9201 94.4375 75.9451 94.8125 81.5659 98.625L84.1784 100.438C90.3534 104.625 100.328 104.625 106.503 100.438L139.437 78.125C145.612 73.9375 155.587 73.9375 161.762 78.125L174.666 86.875" stroke="#00A879" stroke-linecap="round" stroke-linejoin="round"/>
</g>
<circle cx="47" cy="42.6719" r="15" fill="url(#paint4_linear_202_25182)"/>
<defs>
<linearGradient id="paint0_linear_202_25182" x1="64.8188" y1="5.94141" x2="64.8188" y2="115" gradientUnits="userSpaceOnUse">
<stop stop-color="#029B70"/>
<stop offset="1" stop-color="#112721"/>
</linearGradient>
<linearGradient id="paint1_linear_202_25182" x1="115.501" y1="7" x2="115.502" y2="76" gradientUnits="userSpaceOnUse">
<stop stop-color="#0D4334"/>
<stop offset="1" stop-color="#131313"/>
</linearGradient>
<linearGradient id="paint2_linear_202_25182" x1="115.176" y1="52.6719" x2="115.176" y2="67.2582" gradientUnits="userSpaceOnUse">
<stop stop-color="#0D4334"/>
<stop offset="1" stop-color="#131313"/>
</linearGradient>
<linearGradient id="paint3_linear_202_25182" x1="95.4987" y1="12.5" x2="95.4987" y2="137.5" gradientUnits="userSpaceOnUse">
<stop stop-color="#00A879" stop-opacity="0.4"/>
<stop offset="1" stop-color="#00A879" stop-opacity="0"/>
</linearGradient>
<linearGradient id="paint4_linear_202_25182" x1="47" y1="27.6719" x2="47" y2="57.6719" gradientUnits="userSpaceOnUse">
<stop stop-color="#00A879"/>
<stop offset="1" stop-color="#131313" stop-opacity="0"/>
</linearGradient>
</defs>
</svg>
